Coordinates
version=1
nRows=14
nColumns=24
inDegrees=yes

Units are S.I. units (second, meters, Newtons, ...)
If the header above contains a line with 'inDegrees', this indicates whether rotational values are in degrees (yes) or radians (no).

endheader
time	pelvis_tilt	pelvis_list	pelvis_rotation	pelvis_tx	pelvis_ty	pelvis_tz	hip_flexion_r	hip_adduction_r	hip_rotation_r	knee_angle_r	ankle_angle_r	subtalar_angle_r	mtp_angle_r	hip_flexion_l	hip_adduction_l	hip_rotation_l	knee_angle_l	ankle_angle_l	subtalar_angle_l	mtp_angle_l	lumbar_extension	lumbar_bending	lumbar_rotation
      0.69000000	      0.95754424	     -2.07818074	     -6.84927854	     -0.65107045	      0.76469862	      0.09306634	    -13.20671114	      1.41187176	     -0.56456196	    -27.11270991	      8.74849988	      2.13672603	      0.00000000	     26.78082062	     -0.38240208	     -5.49464394	    -17.07837502	     -7.23276451	    -11.28101154	      0.00000000	      0.00000000	      0.00000000	      0.00000000
      0.69500000	      1.07621658	     -1.75299708	     -6.73955466	     -0.64483718	      0.76477604	      0.09266240	    -13.07491695	      0.95402007	     -0.93516653	    -28.14702215	      7.61875889	      2.08158084	      0.00000000	     26.74113513	      0.00992605	     -5.53528186	    -17.84112689	     -7.53658824	    -11.40748042	      0.00000000	      0.00000000	      0.00000000	      0.00000000
      0.70000000	      1.10746731	     -1.30869915	     -6.58714872	     -0.63854470	      0.76481335	      0.09209151	    -12.79073186	      0.35661978	     -1.43133169	    -29.23610359	      6.29398803	      1.99860357	      0.00000000	     26.76010083	      0.57244353	     -5.41264212	    -18.55075468	     -7.83034004	    -11.60711119	      0.00000000	      0.00000000	      0.00000000	      0.00000000
      0.70500000	      1.08002516	     -0.86851457	     -6.40376915	     -0.63239166	      0.76478751	      0.09139272	    -12.35302486	     -0.25216502	     -2.00099419	    -30.46633157	      5.01378559	      1.93079408	      0.00000000	     26.79363129	      1.20274253	     -4.97671401	    -19.16309714	     -8.18423365	    -12.12113087	      0.00000000	      0.00000000	      0.00000000	      0.00000000
      0.71000000	      1.15223930	     -0.43170056	     -6.28621790	     -0.62615178	      0.76497441	      0.09078120	    -12.03430883	     -0.85606060	     -2.35452498	    -31.62747855	      3.52895348	      1.85616385	      0.00000000	     26.73465401	      1.75862346	     -4.91362097	    -19.86266435	     -8.07622920	    -12.29774146	      0.00000000	      0.00000000	      0.00000000	      0.00000000
      0.71500000	      1.22066917	      0.00027721	     -6.17380607	     -0.62006705	      0.76515378	      0.09013573	    -11.60598086	     -1.48719210	     -2.79081217	    -32.92412569	      1.96242238	      1.65955672	      0.00000000	     26.66043866	      2.32778804	     -4.74836988	    -20.52311021	     -7.91458718	    -12.44895813	      0.00000000	      0.00000000	      0.00000000	      0.00000000
      0.72000000	      1.27981173	      0.43251810	     -6.05792128	     -0.61400206	      0.76536730	      0.08945792	    -11.13849779	     -2.11283459	     -3.16448699	    -34.23129998	      0.31337569	      1.42274000	      0.00000000	     26.57616118	      2.90010121	     -4.62791107	    -21.16388031	     -7.64213289	    -12.60451902	      0.00000000	      0.00000000	      0.00000000	      0.00000000
      0.72500000	      1.39663796	      0.78995555	     -5.94920491	     -0.60811887	      0.76567017	      0.08883842	    -10.66992892	     -2.64571566	     -3.43320432	    -35.61364877	     -1.25088392	      1.18133448	      0.00000000	     26.40522814	      3.38792712	     -4.53606557	    -21.76164941	     -7.32131709	    -12.71653286	      0.00000000	      0.00000000	      0.00000000	      0.00000000
      0.73000000	      1.28000007	      1.25678339	     -5.79162837	     -0.60213632	      0.76582766	      0.08816461	     -9.93581442	     -3.24358848	     -3.70978293	    -36.94883563	     -3.32015277	      0.35606439	      0.00000000	     26.45033146	      3.99528829	     -4.37705731	    -22.31757504	     -6.93951779	    -12.78027514	      0.00000000	      0.00000000	      0.00000000	      0.00000000
      0.73500000	      1.33671926	      1.67300652	     -5.71880704	     -0.59627943	      0.76618428	      0.08755165	     -9.31434860	     -3.83564020	     -3.87066155	    -38.36073273	     -5.16003639	     -0.08296216	      0.00000000	     26.26760561	      4.52103906	     -4.37155140	    -22.81497094	     -6.40591577	    -12.76659885	      0.00000000	      0.00000000	      0.00000000	      0.00000000
      0.74000000	      1.58214713	      1.89140957	     -5.62367373	     -0.59076595	      0.76666800	      0.08701867	     -8.85295133	     -4.17618612	     -3.86622911	    -39.85485289	     -6.44235232	     -0.25969104	      0.00000000	     25.91888071	      4.86539525	     -4.27867817	    -23.39025157	     -6.06120118	    -12.77960712	      0.00000000	      0.00000000	      0.00000000	      0.00000000
      0.74500000	      1.29217920	      2.31327392	     -5.53514803	     -0.58491595	      0.76690084	      0.08657181	     -7.80901008	     -4.64728696	     -3.86939723	    -41.17526516	     -9.08089122	     -1.75480450	      0.00000000	     26.03465952	      5.30200691	     -4.51464318	    -23.78687082	     -5.18529184	    -12.40836549	      0.00000000	      0.00000000	      0.00000000	      0.00000000
      0.75000000	      1.34015451	      2.71991404	     -5.47097686	     -0.57927079	      0.76735873	      0.08603749	     -7.03821524	     -5.19560246	     -3.88336115	    -42.67538623	    -10.81333409	     -2.27676558	      0.00000000	     25.74626605	      5.78915350	     -4.65451599	    -24.09125541	     -4.53554658	    -12.23608409	      0.00000000	      0.00000000	      0.00000000	      0.00000000
      0.75500000	      1.28310306	      2.96616746	     -5.39000536	     -0.57386656	      0.76777448	      0.08570444	     -6.14619801	     -5.43732327	     -3.66553520	    -44.12003409	    -12.64797255	     -3.30303701	      0.00000000	     25.62140008	      6.04876030	     -4.89531663	    -24.51055784	     -3.86662491	    -11.85845637	      0.00000000	      0.00000000	      0.00000000	      0.00000000
